<?xml version="1.0" encoding="UTF-8"?>
<!DOCTYPE svg PUBLIC "-//W3C//DTD SVG 1.1//EN" "http://www.w3.org/Graphics/SVG/1.1/DTD/svg11.dtd">
<svg xmlns="http://www.w3.org/2000/svg" version="1.1" width="96px" height="96px" style="shape-rendering:geometricPrecision; text-rendering:geometricPrecision; image-rendering:optimizeQuality; fill-rule:evenodd; clip-rule:evenodd" xmlns:xlink="http://www.w3.org/1999/xlink">
<g><path style="opacity:1" fill="#e2e1e1" d="M 7.5,12.5 C 33.5,12.5 59.5,12.5 85.5,12.5C 73.1179,22.3714 60.2846,31.7048 47,40.5C 34.5761,31.3736 22.0761,22.3736 9.5,13.5C 8.50838,13.6716 7.84171,13.3382 7.5,12.5 Z"/></g>
<g><path style="opacity:1" fill="#d5483b" d="M 85.5,12.5 C 91.7068,12.3728 94.3735,15.3728 93.5,21.5C 92.8333,21.5 92.5,21.8333 92.5,22.5C 88.8333,25.1667 85.1667,27.8333 81.5,30.5C 76.9476,33.6025 72.6143,36.9358 68.5,40.5C 61.2132,45.28 54.0466,50.28 47,55.5C 36.289,47.2826 25.4557,39.2826 14.5,31.5C 14.1583,30.6618 13.4916,30.3284 12.5,30.5C 9.23931,28.0509 6.23931,25.3842 3.5,22.5C 1.5,16.8333 3.5,13.8333 9.5,13.5C 22.0761,22.3736 34.5761,31.3736 47,40.5C 60.2846,31.7048 73.1179,22.3714 85.5,12.5 Z"/></g>
<g><path style="opacity:1" fill="#d62c28" d="M 7.5,12.5 C 7.84171,13.3382 8.50838,13.6716 9.5,13.5C 3.5,13.8333 1.5,16.8333 3.5,22.5C 2.33774,41.3289 2.17107,60.3289 3,79.5C 5.64169,82.0288 8.80835,83.0288 12.5,82.5C 12.5,82.8333 12.5,83.1667 12.5,83.5C 8.48361,84.1001 4.98361,83.1001 2,80.5C 1.33333,58.8333 1.33333,37.1667 2,15.5C 3.58329,14.0289 5.41663,13.0289 7.5,12.5 Z"/></g>
<g><path style="opacity:0.996" fill="#ae221f" d="M 93.5,21.5 C 93.6666,41.1695 93.5,60.8362 93,80.5C 90.1034,83.2309 86.6034,84.2309 82.5,83.5C 84.631,82.6862 86.9644,82.1862 89.5,82C 90.3333,81.1667 91.1667,80.3333 92,79.5C 92.4999,60.5029 92.6666,41.5029 92.5,22.5C 92.5,21.8333 92.8333,21.5 93.5,21.5 Z"/></g>
<g><path style="opacity:1" fill="#d44a3c" d="M 3.5,22.5 C 6.23931,25.3842 9.23931,28.0509 12.5,30.5C 12.5,47.8333 12.5,65.1667 12.5,82.5C 8.80835,83.0288 5.64169,82.0288 3,79.5C 2.17107,60.3289 2.33774,41.3289 3.5,22.5 Z"/></g>
<g><path style="opacity:1" fill="#ac3d32" d="M 92.5,22.5 C 92.6666,41.5029 92.4999,60.5029 92,79.5C 91.1667,80.3333 90.3333,81.1667 89.5,82C 86.9644,82.1862 84.631,82.6862 82.5,83.5C 82.1667,83.5 81.8333,83.5 81.5,83.5C 81.5,65.8333 81.5,48.1667 81.5,30.5C 85.1667,27.8333 88.8333,25.1667 92.5,22.5 Z"/></g>
<g><path style="opacity:0.988" fill="#b9b9b9" d="M 81.5,30.5 C 81.5,48.1667 81.5,65.8333 81.5,83.5C 77.5,83.5 73.5,83.5 69.5,83.5C 69.8293,68.9903 69.4959,54.6569 68.5,40.5C 72.6143,36.9358 76.9476,33.6025 81.5,30.5 Z"/></g>
<g><path style="opacity:1" fill="#d28280" d="M 12.5,30.5 C 13.4916,30.3284 14.1583,30.6618 14.5,31.5C 13.6618,31.8417 13.3284,32.5084 13.5,33.5C 13.5,49.8333 13.5,66.1667 13.5,82.5C 13.5,82.8333 13.5,83.1667 13.5,83.5C 13.1667,83.5 12.8333,83.5 12.5,83.5C 12.5,83.1667 12.5,82.8333 12.5,82.5C 12.5,65.1667 12.5,47.8333 12.5,30.5 Z"/></g>
<g><path style="opacity:1" fill="#cfcfcf" d="M 13.5,33.5 C 22.8333,42.1667 31.8333,51.1667 40.5,60.5C 31.5246,67.8033 22.5246,75.1366 13.5,82.5C 13.5,66.1667 13.5,49.8333 13.5,33.5 Z"/></g>
<g><path style="opacity:0.995" fill="#bcbbbb" d="M 14.5,31.5 C 25.4557,39.2826 36.289,47.2826 47,55.5C 54.0466,50.28 61.2132,45.28 68.5,40.5C 69.4959,54.6569 69.8293,68.9903 69.5,83.5C 67.1667,83.5 64.8333,83.5 62.5,83.5C 55.8898,75.2213 48.5565,67.5546 40.5,60.5C 31.8333,51.1667 22.8333,42.1667 13.5,33.5C 13.3284,32.5084 13.6618,31.8417 14.5,31.5 Z"/></g>
<g><path style="opacity:0.95" fill="#e2e2e2" d="M 40.5,60.5 C 48.5565,67.5546 55.8898,75.2213 62.5,83.5C 46.1667,83.5 29.8333,83.5 13.5,83.5C 13.5,83.1667 13.5,82.8333 13.5,82.5C 22.5246,75.1366 31.5246,67.8033 40.5,60.5 Z"/></g>
</svg>
