<?xml version="1.0" encoding="UTF-8"?>
<!DOCTYPE svg PUBLIC "-//W3C//DTD SVG 1.1//EN" "http://www.w3.org/Graphics/SVG/1.1/DTD/svg11.dtd">
<svg xmlns="http://www.w3.org/2000/svg" version="1.1" width="96px" height="96px" style="shape-rendering:geometricPrecision; text-rendering:geometricPrecision; image-rendering:optimizeQuality; fill-rule:evenodd; clip-rule:evenodd" xmlns:xlink="http://www.w3.org/1999/xlink">
<g><path style="opacity:1" fill="#5060d0" d="M 44.5,3.5 C 44.1753,5.1316 43.1753,6.1316 41.5,6.5C 34.6097,8.3065 27.6097,9.3065 20.5,9.5C 17.0866,9.48303 14.0866,8.81637 11.5,7.5C 13.8068,6.34661 16.1401,5.17994 18.5,4C 27.1603,3.50025 35.8269,3.33358 44.5,3.5 Z"/></g>
<g><path style="opacity:1" fill="#6155c8" d="M 44.5,3.5 C 50.8333,3.5 57.1667,3.5 63.5,3.5C 45.2247,9.93635 26.2247,13.2697 6.5,13.5C 7.44306,10.8908 9.10973,8.89084 11.5,7.5C 14.0866,8.81637 17.0866,9.48303 20.5,9.5C 27.6097,9.3065 34.6097,8.3065 41.5,6.5C 43.1753,6.1316 44.1753,5.1316 44.5,3.5 Z"/></g>
<g><path style="opacity:1" fill="#9239ba" d="M 75.5,5.5 C 80.2618,6.58617 83.9284,9.25283 86.5,13.5C 71.7935,11.2086 57.1269,11.2086 42.5,13.5C 53.3282,10.0428 64.3282,7.37614 75.5,5.5 Z"/></g>
<g><path style="opacity:1" fill="#a433af" d="M 86.5,13.5 C 89.1335,18.1085 90.1335,23.1085 89.5,28.5C 85.0403,25.521 80.2069,23.1876 75,21.5C 74.6012,21.7284 74.4346,22.0618 74.5,22.5C 71.2525,19.0413 67.2525,16.8746 62.5,16C 52.8391,15.5002 43.1724,15.3335 33.5,15.5C 36.5,14.8333 39.5,14.1667 42.5,13.5C 57.1269,11.2086 71.7935,11.2086 86.5,13.5 Z"/></g>
<g><path style="opacity:1" fill="#fcf5f7" d="M 33.5,15.5 C 43.1724,15.3335 52.8391,15.5002 62.5,16C 67.2525,16.8746 71.2525,19.0413 74.5,22.5C 75.5942,24.3594 76.4275,26.3594 77,28.5C 77.4998,38.4944 77.6665,48.4944 77.5,58.5C 77.886,63.7092 76.5526,68.3758 73.5,72.5C 71.3446,74.9895 68.678,76.6561 65.5,77.5C 63.7839,77.6287 62.1172,77.962 60.5,78.5C 58.5,78.5 56.5,78.5 54.5,78.5C 45.4938,78.6664 36.4938,78.4998 27.5,78C 25.5932,76.878 23.5932,76.0447 21.5,75.5C 19.4453,73.4451 17.7787,71.1117 16.5,68.5C 14.8568,64.6995 14.1901,60.6995 14.5,56.5C 14.5,54.5 14.5,52.5 14.5,50.5C 14.5,48.8333 14.5,47.1667 14.5,45.5C 14.5,44.1667 14.5,42.8333 14.5,41.5C 14.5,40.5 14.5,39.5 14.5,38.5C 14.2529,35.0613 14.5863,31.728 15.5,28.5C 18.5897,20.2763 24.5897,15.943 33.5,15.5 Z"/></g>
<g><path style="opacity:1" fill="#753db6" d="M 63.5,3.5 C 66.8499,3.33499 70.1832,3.50166 73.5,4C 74.4158,4.27842 75.0825,4.77842 75.5,5.5C 64.3282,7.37614 53.3282,10.0428 42.5,13.5C 39.5,14.1667 36.5,14.8333 33.5,15.5C 24.5897,15.943 18.5897,20.2763 15.5,28.5C 14.7784,28.0825 14.2784,27.4158 14,26.5C 10.3462,28.6631 6.84622,30.9964 3.5,33.5C 3.33407,28.4889 3.50074,23.4889 4,18.5C 4.37362,16.5087 5.20695,14.842 6.5,13.5C 26.2247,13.2697 45.2247,9.93635 63.5,3.5 Z"/></g>
<g><path style="opacity:1" fill="#ad2d91" d="M 66.5,23.5 C 66.1205,24.1331 65.7871,24.7997 65.5,25.5C 64.7065,25.0688 63.8732,24.7355 63,24.5C 61.6043,25.3943 60.1043,26.0609 58.5,26.5C 45.738,23.2731 34.0714,25.6064 23.5,33.5C 21.8235,32.8166 21.1568,31.4832 21.5,29.5C 22.1828,25.9802 24.1828,23.4802 27.5,22C 39.5,21.3333 51.5,21.3333 63.5,22C 64.7375,22.2321 65.7375,22.7321 66.5,23.5 Z"/></g>
<g><path style="opacity:1" fill="#bb2f8a" d="M 66.5,23.5 C 69.6818,25.1927 71.3484,27.8593 71.5,31.5C 70.8485,32.0906 70.1818,32.7573 69.5,33.5C 68.5832,32.8728 67.5832,32.5394 66.5,32.5C 67.0579,26.4452 64.8912,25.1119 60,28.5C 59.5172,29.448 59.3505,30.448 59.5,31.5C 47.8339,28.4556 36.3339,29.4556 25,34.5C 24.2352,34.4301 23.7352,34.0967 23.5,33.5C 34.0714,25.6064 45.738,23.2731 58.5,26.5C 60.1043,26.0609 61.6043,25.3943 63,24.5C 63.8732,24.7355 64.7065,25.0688 65.5,25.5C 65.7871,24.7997 66.1205,24.1331 66.5,23.5 Z"/></g>
<g><path style="opacity:1" fill="#fcf6fa" d="M 66.5,32.5 C 63.7837,34.0861 61.4503,33.7528 59.5,31.5C 59.3505,30.448 59.5172,29.448 60,28.5C 64.8912,25.1119 67.0579,26.4452 66.5,32.5 Z"/></g>
<g><path style="opacity:1" fill="#fef6f7" d="M 56.5,34.5 C 60.6647,38.1701 62.6647,42.8367 62.5,48.5C 62.3713,50.2161 62.038,51.8828 61.5,53.5C 60.5987,54.2905 59.9321,55.2905 59.5,56.5C 58.5,57.8333 57.5,59.1667 56.5,60.5C 53.9823,61.2638 51.649,62.2638 49.5,63.5C 40.1155,64.3088 33.7821,60.3088 30.5,51.5C 30.5,51.1667 30.5,50.8333 30.5,50.5C 30.5,47.5 30.5,44.5 30.5,41.5C 36.7531,30.1933 45.4197,27.86 56.5,34.5 Z"/></g>
<g><path style="opacity:1" fill="#c73783" d="M 21.5,29.5 C 21.1568,31.4832 21.8235,32.8166 23.5,33.5C 23.7352,34.0967 24.2352,34.4301 25,34.5C 36.3339,29.4556 47.8339,28.4556 59.5,31.5C 61.4503,33.7528 63.7837,34.0861 66.5,32.5C 67.5832,32.5394 68.5832,32.8728 69.5,33.5C 70.1818,32.7573 70.8485,32.0906 71.5,31.5C 72.8333,41.5 72.8333,51.5 71.5,61.5C 71.5,56.8333 71.5,52.1667 71.5,47.5C 71.6653,43.8183 71.4986,40.1516 71,36.5C 70.8078,38.5767 70.3078,40.5767 69.5,42.5C 67.7749,41.9851 66.1083,41.3184 64.5,40.5C 62.0048,38.8363 60.0048,36.6696 58.5,34C 57.5632,33.3083 56.8966,33.475 56.5,34.5C 45.4197,27.86 36.7531,30.1933 30.5,41.5C 30.5654,41.0618 30.3988,40.7284 30,40.5C 27.1963,42.3444 24.0297,43.0111 20.5,42.5C 20.1818,37.9677 20.5151,33.6344 21.5,29.5 Z"/></g>
<g><path style="opacity:0.94" fill="#9b3596" d="M 15.5,28.5 C 14.5863,31.728 14.2529,35.0613 14.5,38.5C 11.6189,42.0441 7.95223,44.3774 3.5,45.5C 3.5,41.5 3.5,37.5 3.5,33.5C 6.84622,30.9964 10.3462,28.6631 14,26.5C 14.2784,27.4158 14.7784,28.0825 15.5,28.5 Z"/></g>
<g><path style="opacity:0.961" fill="#c93599" d="M 89.5,28.5 C 89.5,34.8333 89.5,41.1667 89.5,47.5C 86.141,44.4715 82.8076,41.4715 79.5,38.5C 78.8333,45.1667 78.1667,51.8333 77.5,58.5C 77.6665,48.4944 77.4998,38.4944 77,28.5C 76.4275,26.3594 75.5942,24.3594 74.5,22.5C 74.4346,22.0618 74.6012,21.7284 75,21.5C 80.2069,23.1876 85.0403,25.521 89.5,28.5 Z"/></g>
<g><path style="opacity:1" fill="#d52c70" d="M 56.5,45.5 C 55.4402,47.0433 53.9402,48.0433 52,48.5C 47.085,47.0899 42.585,44.9233 38.5,42C 39.5,41 40.5,40 41.5,39C 41.2716,38.6012 40.9382,38.4346 40.5,38.5C 45.0722,35.7391 49.5722,36.0724 54,39.5C 55.5588,41.2166 56.3921,43.2166 56.5,45.5 Z"/></g>
<g><path style="opacity:1" fill="#d62973" d="M 56.5,34.5 C 56.8966,33.475 57.5632,33.3083 58.5,34C 60.0048,36.6696 62.0048,38.8363 64.5,40.5C 66.1083,41.3184 67.7749,41.9851 69.5,42.5C 70.3078,40.5767 70.8078,38.5767 71,36.5C 71.4986,40.1516 71.6653,43.8183 71.5,47.5C 70.6981,48.9516 70.1981,50.6183 70,52.5C 67.81,55.2486 66.1433,54.9153 65,51.5C 64.6667,49.5 64.3333,47.5 64,45.5C 63.7679,46.7375 63.2679,47.7375 62.5,48.5C 62.6647,42.8367 60.6647,38.1701 56.5,34.5 Z"/></g>
<g><path style="opacity:1" fill="#d3416b" d="M 30.5,41.5 C 30.5,44.5 30.5,47.5 30.5,50.5C 29.6862,48.369 29.1862,46.0356 29,43.5C 26.544,45.3213 23.7107,45.988 20.5,45.5C 20.5,44.5 20.5,43.5 20.5,42.5C 24.0297,43.0111 27.1963,42.3444 30,40.5C 30.3988,40.7284 30.5654,41.0618 30.5,41.5 Z"/></g>
<g><path style="opacity:1" fill="#b43682" d="M 14.5,38.5 C 14.5,39.5 14.5,40.5 14.5,41.5C 11.3129,44.5932 7.64618,46.9265 3.5,48.5C 3.5,47.5 3.5,46.5 3.5,45.5C 7.95223,44.3774 11.6189,42.0441 14.5,38.5 Z"/></g>
<g><path style="opacity:1" fill="#df3660" d="M 40.5,38.5 C 40.9382,38.4346 41.2716,38.6012 41.5,39C 40.5,40 39.5,41 38.5,42C 42.585,44.9233 47.085,47.0899 52,48.5C 53.9402,48.0433 55.4402,47.0433 56.5,45.5C 56.7947,47.7354 56.4614,49.7354 55.5,51.5C 55.5654,51.0618 55.3988,50.7284 55,50.5C 54.196,51.8045 53.0293,52.4712 51.5,52.5C 46.8029,51.1601 42.1362,49.8268 37.5,48.5C 36.8333,48.5 36.5,48.8333 36.5,49.5C 34.6537,44.8309 35.987,41.1642 40.5,38.5 Z"/></g>
<g><path style="opacity:0.94" fill="#d52e84" d="M 79.5,38.5 C 82.8076,41.4715 86.141,44.4715 89.5,47.5C 89.6665,56.8393 89.4998,66.1726 89,75.5C 87.4185,80.2348 84.5851,83.9015 80.5,86.5C 81.3191,80.5 81.1525,74.5 80,68.5C 79.5002,58.5056 79.3335,48.5056 79.5,38.5 Z"/></g>
<g><path style="opacity:1" fill="#c5436f" d="M 14.5,41.5 C 14.5,42.8333 14.5,44.1667 14.5,45.5C 11.6657,48.9751 7.99908,51.3084 3.5,52.5C 3.5,51.1667 3.5,49.8333 3.5,48.5C 7.64618,46.9265 11.3129,44.5932 14.5,41.5 Z"/></g>
<g><path style="opacity:1" fill="#e8424d" d="M 37.5,48.5 C 42.1362,49.8268 46.8029,51.1601 51.5,52.5C 53.0293,52.4712 54.196,51.8045 55,50.5C 55.3988,50.7284 55.5654,51.0618 55.5,51.5C 54.9744,53.2303 53.9744,54.5637 52.5,55.5C 49.0707,55.4543 45.404,55.2877 41.5,55C 39.2663,53.3621 37.933,51.1955 37.5,48.5 Z"/></g>
<g><path style="opacity:1" fill="#e34f49" d="M 30.5,50.5 C 30.5,50.8333 30.5,51.1667 30.5,51.5C 29.596,52.209 29.2627,53.209 29.5,54.5C 26.2896,54.7508 23.2896,54.7508 20.5,54.5C 20.5,51.5 20.5,48.5 20.5,45.5C 23.7107,45.988 26.544,45.3213 29,43.5C 29.1862,46.0356 29.6862,48.369 30.5,50.5 Z"/></g>
<g><path style="opacity:0.841" fill="#d14e5f" d="M 14.5,45.5 C 14.5,47.1667 14.5,48.8333 14.5,50.5C 10.9443,52.646 7.27766,54.646 3.5,56.5C 3.5,55.1667 3.5,53.8333 3.5,52.5C 7.99908,51.3084 11.6657,48.9751 14.5,45.5 Z"/></g>
<g><path style="opacity:1" fill="#eb3f32" d="M 37.5,48.5 C 37.933,51.1955 39.2663,53.3621 41.5,55C 45.404,55.2877 49.0707,55.4543 52.5,55.5C 44.8048,59.5549 39.4715,57.5549 36.5,49.5C 36.5,48.8333 36.8333,48.5 37.5,48.5 Z"/></g>
<g><path style="opacity:1" fill="#df2764" d="M 71.5,47.5 C 71.5,52.1667 71.5,56.8333 71.5,61.5C 71.7678,63.099 71.4345,64.4324 70.5,65.5C 70.5,64.8333 70.1667,64.5 69.5,64.5C 67.233,61.7291 64.733,59.0625 62,56.5C 61.5172,55.552 61.3505,54.552 61.5,53.5C 62.038,51.8828 62.3713,50.2161 62.5,48.5C 63.2679,47.7375 63.7679,46.7375 64,45.5C 64.3333,47.5 64.6667,49.5 65,51.5C 66.1433,54.9153 67.81,55.2486 70,52.5C 70.1981,50.6183 70.6981,48.9516 71.5,47.5 Z"/></g>
<g><path style="opacity:0.94" fill="#de5c4d" d="M 14.5,50.5 C 14.5,52.5 14.5,54.5 14.5,56.5C 10.4555,57.7661 6.78883,59.7661 3.5,62.5C 3.5,60.5 3.5,58.5 3.5,56.5C 7.27766,54.646 10.9443,52.646 14.5,50.5 Z"/></g>
<g><path style="opacity:1" fill="#e83b5a" d="M 61.5,53.5 C 61.3505,54.552 61.5172,55.552 62,56.5C 64.733,59.0625 67.233,61.7291 69.5,64.5C 69.3146,66.1958 68.4813,67.5291 67,68.5C 64.1667,65.6667 61.3333,62.8333 58.5,60C 60.3115,58.9593 60.6448,57.7927 59.5,56.5C 59.9321,55.2905 60.5987,54.2905 61.5,53.5 Z"/></g>
<g><path style="opacity:1" fill="#eb4147" d="M 59.5,56.5 C 60.6448,57.7927 60.3115,58.9593 58.5,60C 61.3333,62.8333 64.1667,65.6667 67,68.5C 68.4813,67.5291 69.3146,66.1958 69.5,64.5C 70.1667,64.5 70.5,64.8333 70.5,65.5C 69.5806,68.0892 67.914,70.0892 65.5,71.5C 62.0622,68.5653 58.7289,65.3986 55.5,62C 56.056,61.6174 56.3893,61.1174 56.5,60.5C 57.5,59.1667 58.5,57.8333 59.5,56.5 Z"/></g>
<g><path style="opacity:1" fill="#f5672d" d="M 30.5,51.5 C 33.7821,60.3088 40.1155,64.3088 49.5,63.5C 49.9382,63.4346 50.2716,63.6012 50.5,64C 49.8333,64.3333 49.1667,64.6667 48.5,65C 51.7676,65.936 54.101,67.936 55.5,71C 57.3817,71.1981 59.0484,71.6981 60.5,72.5C 55.1667,72.5 49.8333,72.5 44.5,72.5C 45.6085,71.71 46.9419,71.21 48.5,71C 44.7792,69.1465 41.4459,66.8131 38.5,64C 33.5221,61.2558 28.1887,60.0891 22.5,60.5C 22.7678,62.099 22.4345,63.4324 21.5,64.5C 20.5206,61.3752 20.1872,58.0419 20.5,54.5C 23.2896,54.7508 26.2896,54.7508 29.5,54.5C 29.2627,53.209 29.596,52.209 30.5,51.5 Z"/></g>
<g><path style="opacity:1" fill="#ed7338" d="M 14.5,56.5 C 14.1901,60.6995 14.8568,64.6995 16.5,68.5C 15.3052,68.3225 14.1385,67.9891 13,67.5C 10.1857,69.8239 7.01903,71.4906 3.5,72.5C 3.5,69.1667 3.5,65.8333 3.5,62.5C 6.78883,59.7661 10.4555,57.7661 14.5,56.5 Z"/></g>
<g><path style="opacity:1" fill="#f87b2b" d="M 44.5,72.5 C 38.8236,72.6661 33.1569,72.4994 27.5,72C 24.1828,70.5198 22.1828,68.0198 21.5,64.5C 22.4345,63.4324 22.7678,62.099 22.5,60.5C 28.1887,60.0891 33.5221,61.2558 38.5,64C 41.4459,66.8131 44.7792,69.1465 48.5,71C 46.9419,71.21 45.6085,71.71 44.5,72.5 Z"/></g>
<g><path style="opacity:1" fill="#f3593a" d="M 56.5,60.5 C 56.3893,61.1174 56.056,61.6174 55.5,62C 58.7289,65.3986 62.0622,68.5653 65.5,71.5C 63.9582,72.3007 62.2915,72.634 60.5,72.5C 59.0484,71.6981 57.3817,71.1981 55.5,71C 54.101,67.936 51.7676,65.936 48.5,65C 49.1667,64.6667 49.8333,64.3333 50.5,64C 50.2716,63.6012 49.9382,63.4346 49.5,63.5C 51.649,62.2638 53.9823,61.2638 56.5,60.5 Z"/></g>
<g><path style="opacity:0.984" fill="#dd2d6c" d="M 79.5,38.5 C 79.3335,48.5056 79.5002,58.5056 80,68.5C 81.1525,74.5 81.3191,80.5 80.5,86.5C 79.0351,87.7368 77.3684,88.7368 75.5,89.5C 74.2219,83.6273 73.5552,77.9607 73.5,72.5C 76.5526,68.3758 77.886,63.7092 77.5,58.5C 78.1667,51.8333 78.8333,45.1667 79.5,38.5 Z"/></g>
<g><path style="opacity:1" fill="#f79236" d="M 16.5,68.5 C 17.7787,71.1117 19.4453,73.4451 21.5,75.5C 15.7822,75.0096 10.4489,76.3429 5.5,79.5C 4.43363,77.2986 3.76697,74.9653 3.5,72.5C 7.01903,71.4906 10.1857,69.8239 13,67.5C 14.1385,67.9891 15.3052,68.3225 16.5,68.5 Z"/></g>
<g><path style="opacity:1" fill="#e94754" d="M 73.5,72.5 C 73.5552,77.9607 74.2219,83.6273 75.5,89.5C 73.6208,90.3414 71.6208,90.6747 69.5,90.5C 68.4579,86.081 67.1245,81.7477 65.5,77.5C 68.678,76.6561 71.3446,74.9895 73.5,72.5 Z"/></g>
<g><path style="opacity:1" fill="#fecd6d" d="M 52.5,90.5 C 41.1618,90.6665 29.8284,90.4999 18.5,90C 15.1019,88.6429 12.1019,86.8096 9.5,84.5C 17.7058,79.3798 26.7058,78.0465 36.5,80.5C 41.2765,82.3877 45.9432,84.5544 50.5,87C 51.8228,87.8159 52.4894,88.9826 52.5,90.5 Z"/></g>
<g><path style="opacity:1" fill="#fcaf53" d="M 21.5,75.5 C 23.5932,76.0447 25.5932,76.878 27.5,78C 36.4938,78.4998 45.4938,78.6664 54.5,78.5C 53.7375,79.2679 52.7375,79.7679 51.5,80C 55.8783,82.2098 58.545,85.7098 59.5,90.5C 57.1667,90.5 54.8333,90.5 52.5,90.5C 52.4894,88.9826 51.8228,87.8159 50.5,87C 45.9432,84.5544 41.2765,82.3877 36.5,80.5C 26.7058,78.0465 17.7058,79.3798 9.5,84.5C 7.93731,83.0552 6.60398,81.3885 5.5,79.5C 10.4489,76.3429 15.7822,75.0096 21.5,75.5 Z"/></g>
<g><path style="opacity:1" fill="#f7884a" d="M 54.5,78.5 C 56.5,78.5 58.5,78.5 60.5,78.5C 62.8326,82.4946 65.166,86.4946 67.5,90.5C 64.8333,90.5 62.1667,90.5 59.5,90.5C 58.545,85.7098 55.8783,82.2098 51.5,80C 52.7375,79.7679 53.7375,79.2679 54.5,78.5 Z"/></g>
<g><path style="opacity:1" fill="#f16647" d="M 65.5,77.5 C 67.1245,81.7477 68.4579,86.081 69.5,90.5C 68.8333,90.5 68.1667,90.5 67.5,90.5C 65.166,86.4946 62.8326,82.4946 60.5,78.5C 62.1172,77.962 63.7839,77.6287 65.5,77.5 Z"/></g>
</svg>
