<?xml version="1.0" encoding="UTF-8"?>
<!DOCTYPE svg PUBLIC "-//W3C//DTD SVG 1.1//EN" "http://www.w3.org/Graphics/SVG/1.1/DTD/svg11.dtd">
<svg xmlns="http://www.w3.org/2000/svg" version="1.1" width="96px" height="96px" style="shape-rendering:geometricPrecision; text-rendering:geometricPrecision; image-rendering:optimizeQuality; fill-rule:evenodd; clip-rule:evenodd" xmlns:xlink="http://www.w3.org/1999/xlink">
<g><path style="opacity:1" fill="#f2f2f2" d="M -0.5,-0.5 C 31.5,-0.5 63.5,-0.5 95.5,-0.5C 95.5,23.5 95.5,47.5 95.5,71.5C 92.498,70.072 89.6647,70.4054 87,72.5C 86.3333,71.8333 85.6667,71.1667 85,70.5C 83.8818,73.1395 83.3818,75.9728 83.5,79C 83.3818,82.0272 83.8818,84.8605 85,87.5C 86.2542,84.0244 86.9209,80.3577 87,76.5C 89.3606,73.5576 92.1939,72.891 95.5,74.5C 95.5,81.5 95.5,88.5 95.5,95.5C 63.5,95.5 31.5,95.5 -0.5,95.5C -0.5,90.8333 -0.5,86.1667 -0.5,81.5C 3.33682,87.6172 8.17015,88.6172 14,84.5C 15.4204,77.9504 15.9204,71.2837 15.5,64.5C 14.5,64.5 13.5,64.5 12.5,64.5C 12.6641,67.1873 12.4974,69.854 12,72.5C 6.66738,69.8876 2.50071,71.2209 -0.5,76.5C -0.5,50.8333 -0.5,25.1667 -0.5,-0.5 Z"/></g>
<g><path style="opacity:1" fill="#006ab6" d="M 47.5,7.5 C 50.1667,7.5 52.8333,7.5 55.5,7.5C 55.5,9.83333 55.5,12.1667 55.5,14.5C 52.8333,14.5 50.1667,14.5 47.5,14.5C 47.5,12.1667 47.5,9.83333 47.5,7.5 Z"/></g>
<g><path style="opacity:1" fill="#006cb8" d="M 30.5,15.5 C 32.8333,15.5 35.1667,15.5 37.5,15.5C 37.5,17.8333 37.5,20.1667 37.5,22.5C 35.1667,22.5 32.8333,22.5 30.5,22.5C 30.5,20.1667 30.5,17.8333 30.5,15.5 Z"/></g>
<g><path style="opacity:1" fill="#006ab6" d="M 38.5,15.5 C 41.1667,15.5 43.8333,15.5 46.5,15.5C 46.5,17.8333 46.5,20.1667 46.5,22.5C 43.8333,22.5 41.1667,22.5 38.5,22.5C 38.5,20.1667 38.5,17.8333 38.5,15.5 Z"/></g>
<g><path style="opacity:1" fill="#006ab6" d="M 47.5,15.5 C 50.1667,15.5 52.8333,15.5 55.5,15.5C 55.5,17.8333 55.5,20.1667 55.5,22.5C 52.8333,22.5 50.1667,22.5 47.5,22.5C 47.5,20.1667 47.5,17.8333 47.5,15.5 Z"/></g>
<g><path style="opacity:1" fill="#006bb7" d="M 71.5,17.5 C 74.6872,19.3438 76.6872,22.0105 77.5,25.5C 88.5082,24.9216 89.8415,27.7549 81.5,34C 79.8333,34.3333 78.1667,34.6667 76.5,35C 67.3419,52.0807 53.0086,59.414 33.5,57C 20.6549,53.4965 14.9883,45.1632 16.5,32C 34.1635,31.5001 51.8302,31.3334 69.5,31.5C 67.912,26.5166 68.5787,21.85 71.5,17.5 Z"/></g>
<g><path style="opacity:1" fill="#0069b6" d="M 21.5,23.5 C 23.8333,23.5 26.1667,23.5 28.5,23.5C 28.5,25.8333 28.5,28.1667 28.5,30.5C 26.1667,30.5 23.8333,30.5 21.5,30.5C 21.5,28.1667 21.5,25.8333 21.5,23.5 Z"/></g>
<g><path style="opacity:1" fill="#0069b6" d="M 30.5,23.5 C 32.8333,23.5 35.1667,23.5 37.5,23.5C 37.5,25.8333 37.5,28.1667 37.5,30.5C 35.1667,30.5 32.8333,30.5 30.5,30.5C 30.5,28.1667 30.5,25.8333 30.5,23.5 Z"/></g>
<g><path style="opacity:1" fill="#0168b5" d="M 38.5,23.5 C 41.1667,23.5 43.8333,23.5 46.5,23.5C 46.5,25.8333 46.5,28.1667 46.5,30.5C 43.8333,30.5 41.1667,30.5 38.5,30.5C 38.5,28.1667 38.5,25.8333 38.5,23.5 Z"/></g>
<g><path style="opacity:1" fill="#0168b5" d="M 47.5,23.5 C 50.1667,23.5 52.8333,23.5 55.5,23.5C 55.5,25.8333 55.5,28.1667 55.5,30.5C 52.8333,30.5 50.1667,30.5 47.5,30.5C 47.5,28.1667 47.5,25.8333 47.5,23.5 Z"/></g>
<g><path style="opacity:1" fill="#0069b6" d="M 56.5,23.5 C 58.8333,23.5 61.1667,23.5 63.5,23.5C 63.5,25.8333 63.5,28.1667 63.5,30.5C 61.1667,30.5 58.8333,30.5 56.5,30.5C 56.5,28.1667 56.5,25.8333 56.5,23.5 Z"/></g>
<g><path style="opacity:1" fill="#0169b6" d="M -0.5,81.5 C -0.5,79.8333 -0.5,78.1667 -0.5,76.5C 2.50071,71.2209 6.66738,69.8876 12,72.5C 12.4974,69.854 12.6641,67.1873 12.5,64.5C 13.5,64.5 14.5,64.5 15.5,64.5C 15.9204,71.2837 15.4204,77.9504 14,84.5C 8.17015,88.6172 3.33682,87.6172 -0.5,81.5 Z"/></g>
<g><path style="opacity:1" fill="#006bb7" d="M 50.5,64.5 C 51.5,64.5 52.5,64.5 53.5,64.5C 53.3345,68.5138 53.5012,72.5138 54,76.5C 57,74.5 60,72.5 63,70.5C 63.6924,71.0253 64.1924,71.6919 64.5,72.5C 62.3345,74.4933 60.0011,76.3267 57.5,78C 59.6667,80.1667 61.8333,82.3333 64,84.5C 64.5628,85.7248 64.2295,86.7248 63,87.5C 60.3176,84.6503 57.4843,81.9836 54.5,79.5C 53.6858,81.7662 53.1858,84.0995 53,86.5C 52.3333,87.8333 51.6667,87.8333 51,86.5C 50.5003,79.1742 50.3337,71.8409 50.5,64.5 Z"/></g>
<g><path style="opacity:1" fill="#006ab6" d="M 24.5,70.5 C 31.4319,71.5984 34.2652,75.5984 33,82.5C 28.9966,88.171 24.3299,88.8377 19,84.5C 15.739,77.6977 17.5724,73.031 24.5,70.5 Z"/></g>
<g><path style="opacity:1" fill="#0069b6" d="M 42.5,70.5 C 44.9661,70.8987 46.9661,72.0653 48.5,74C 48.1667,74.5 47.8333,75 47.5,75.5C 42.966,72.7343 39.6326,73.9009 37.5,79C 39.331,84.4144 42.6644,85.581 47.5,82.5C 48.731,83.6507 48.731,84.8173 47.5,86C 40.5377,88.5672 36.2044,86.2338 34.5,79C 35.3111,74.3571 37.9777,71.5238 42.5,70.5 Z"/></g>
<g><path style="opacity:1" fill="#006ab6" d="M 72.5,70.5 C 79.0397,70.7043 82.0397,74.0377 81.5,80.5C 77.4454,80.1758 73.4454,80.5091 69.5,81.5C 72.0887,85.0217 75.0887,85.355 78.5,82.5C 79.5827,83.365 79.7494,84.365 79,85.5C 70.331,88.8361 65.9976,85.8361 66,76.5C 67.4361,73.5581 69.6028,71.5581 72.5,70.5 Z"/></g>
<g><path style="opacity:1" fill="#006ab7" d="M 95.5,71.5 C 95.5,72.5 95.5,73.5 95.5,74.5C 92.1939,72.891 89.3606,73.5576 87,76.5C 86.9209,80.3577 86.2542,84.0244 85,87.5C 83.8818,84.8605 83.3818,82.0272 83.5,79C 83.3818,75.9728 83.8818,73.1395 85,70.5C 85.6667,71.1667 86.3333,71.8333 87,72.5C 89.6647,70.4054 92.498,70.072 95.5,71.5 Z"/></g>
<g><path style="opacity:1" fill="#f1f1f2" d="M 24.5,73.5 C 29.3347,74.1605 31.1681,76.8271 30,81.5C 25.6158,85.5653 22.4491,84.7319 20.5,79C 20.9009,76.44 22.2342,74.6066 24.5,73.5 Z"/></g>
<g><path style="opacity:1" fill="#ecedee" d="M 73.5,73.5 C 75.487,74.1642 77.1537,75.3308 78.5,77C 75.4459,77.8214 72.4459,77.6548 69.5,76.5C 70.6243,75.1408 71.9577,74.1408 73.5,73.5 Z"/></g>
<g><path style="opacity:1" fill="#efeff0" d="M 7.5,73.5 C 12.2596,74.9436 13.5929,77.9436 11.5,82.5C 7.09042,85.3027 4.09042,84.136 2.5,79C 3.02933,75.9762 4.696,74.1429 7.5,73.5 Z"/></g>
</svg>
